<svg id="레이어_1" data-name="레이어 1" xmlns="http://www.w3.org/2000/svg" viewBox="0 0 500 500"><title>6대지 1</title><path d="M334.65,349.82c-3.17-1.67-5.79-4.27-8.56-7l-.28-.27q-12.46-12.34-24.92-24.72-11.24-11.15-22.47-22.3a4.1,4.1,0,0,0,.07-5.13,18.31,18.31,0,0,0-4.32-4.25,4.62,4.62,0,0,0-2.56-.79,5.7,5.7,0,0,0-3.79,1.68l-.31.25c-13.38,8.67-27.48,13.07-41.88,13.07a75.18,75.18,0,0,1-10.52-.75c-15.89-2.23-29.51-8.56-40.49-18.82-19.52-18.25-27.5-40.57-23.69-66.33,4.06-27.5,19.57-47.32,46.11-58.93,7.37-3.22,15.26-4.54,21.36-5.33h12.37a96.54,96.54,0,0,1,16.38,3.17,75.11,75.11,0,0,1,46.59,102.36,83.6,83.6,0,0,1-7.17,12.78l-.13.17c-2.16,3.06-.91,5.25,0,6.28.22.23.43.48.63.73A10.81,10.81,0,0,0,291,279l.67.3.81,0a4.43,4.43,0,0,0,2.8-1.1l3,3c16.18,16.1,32.91,32.75,49,49.45a8.57,8.57,0,0,1,2.25,4.1c1.62,6.88-1.55,12.48-8.5,15.07ZM225.16,282.66l1.52,0c30.26,0,55.92-26.23,56-57.27a58.44,58.44,0,0,0-17.07-41.07A57,57,0,0,0,225,167.49h-.22a57.78,57.78,0,0,0-57.33,57.87c0,31.06,25.83,57.31,56.35,57.31h0Zm3.19-27.33a30.34,30.34,0,0,0,22.17-46.65A29.35,29.35,0,0,0,227.7,195c1.84,11.66-1.68,21-10.47,27.6a27.33,27.33,0,0,1-16.82,5.82,29.9,29.9,0,0,1-5.5-.52l0,.39a26,26,0,0,0,.65,4.54,30,30,0,0,0,29.23,22.45H225c.43,0,.85,0,1.28,0l1.09,0C227.69,255.37,228,255.36,228.35,255.33Z" style="fill:#47aef7"/></svg>