<svg id="레이어_1" data-name="레이어 1" xmlns="http://www.w3.org/2000/svg" viewBox="0 0 500 500"><title>2대지 1</title><path d="M192.53,109.88H306.87c3.44.82,4.82,3.27,5.13,6.54V248.07c0,2.3,0,2.3,2.37,2.3h49.81c4.67,0,7,1.34,8,5.56v.65A10.47,10.47,0,0,1,370,261.1q-12.3,13.39-24.5,26.84-10.68,11.7-21.41,23.32l-28,30.55q-8.76,9.56-17.51,19.14-11.5,12.57-23,25.19a10.05,10.05,0,0,1-5.23,3.4h-1.31a9.37,9.37,0,0,1-4.54-2.7q-15.14-16.56-30.35-33.06-16.74-18.27-33.37-36.52-11.61-12.69-23.27-25.37c-8-8.74-16.06-17.44-24-26.26-2.47-2.75-5.72-5-6.35-9.07v-.65c.94-4.21,3.26-5.49,8-5.55h50c2.2,0,2.2,0,2.2-2.14V116.42C187.71,113.15,189.08,110.7,192.53,109.88Zm6.62,79.47v66.3c-.25,3.75-1.93,5.65-5.64,6.25a18.73,18.73,0,0,1-3.09.2h-42c-.56,0-1.39-.31-1.64.29s.52,1,.9,1.41q8.52,9.36,17.07,18.68,13.07,14.29,26.13,28.54l23.49,25.64L234,358.13q7.35,8,14.7,16c.79.86,1.33.83,2.09,0,3.66-4,7.39-8,11.06-12q13.39-14.7,26.76-29.29l22.08-24.06,35.61-38.89,5.91-6.54c.25-.26.7-.5.49-.93s-.67-.27-1-.29-1,0-1.47,0H309a17.22,17.22,0,0,1-2.78-.15c-4.08-.6-5.83-2.63-5.94-6.81v-131c0-2.79,0-2.79-2.79-2.79H201.92c-2.77,0-2.77,0-2.77,2.82Z" style="fill:#dd493d"/><path d="M253.93,236a29.25,29.25,0,0,0-4.39.28,1.41,1.41,0,0,0-1.42,1.42,1.62,1.62,0,0,0,0,.22V242a7.19,7.19,0,0,1-4.08,7.06A7.56,7.56,0,0,1,235.5,248q-8.59-7.35-17.13-14.7c-3.1-2.64-6.11-5.4-9.33-7.9A8.06,8.06,0,0,1,208,214a7.87,7.87,0,0,1,1-1c8.74-7.19,17.29-14.6,25.88-22a8,8,0,0,1,8.77-1.63c3.27,1.37,4.41,4.15,4.38,7.55v2.61c0,2.42,0,2.45,2.4,3.07A62.81,62.81,0,0,1,277,216.46c9.21,8.17,15.24,18.2,16.67,30.66a37.38,37.38,0,0,1,.15,4.23c0,3.27-1.63,5.47-4.36,6a6,6,0,0,1-6.81-3.81,27.15,27.15,0,0,0-9.21-11.43A32.59,32.59,0,0,0,253.93,236Zm26.31-.39.25-.23c-.1-.24-.2-.49-.31-.71a42.59,42.59,0,0,0-10.78-12.55,55.48,55.48,0,0,0-25.74-11.63c-3.52-.62-4.72-2.11-4.77-5.67V201.4c0-.9-.33-1.11-1.07-.5l-.88.7c-6.53,5.5-12.9,11-19.4,16.48-1.08.91-1,1.63,0,2.45,2,1.63,3.9,3.27,5.85,4.9l14.16,12c.29.25.58.63,1,.48s.32-.75.34-1.16v-3.74a4.59,4.59,0,0,1,3.94-4.9,43,43,0,0,1,34.07,5.21c1.14.72,2.22,1.5,3.36,2.25Z" style="fill:#dd493d"/><path d="M206.17,249.56v-1.31a5.51,5.51,0,0,1,4.26-5.93,5.93,5.93,0,0,1,6.88,3.67,27,27,0,0,0,9.8,11.93,33.2,33.2,0,0,0,23,5.58c1.36-.13,1.93-.7,1.83-2.07s0-2.52,0-3.76a7.17,7.17,0,0,1,4.14-7,7.53,7.53,0,0,1,8.41,1.1c4.54,3.8,9.05,7.66,13.56,11.51s8.47,7.5,12.92,11a8.17,8.17,0,0,1,.95,11.51,8.52,8.52,0,0,1-.95.95c-8.76,7.17-17.29,14.7-25.86,22a7.87,7.87,0,0,1-8.79,1.64c-3.15-1.36-4.34-4.09-4.33-7.42V301c0-3.27,0-3.17-3.26-4.09-16.89-4.78-30.27-14.11-38.32-30.12A38.33,38.33,0,0,1,206.17,249.56Zm13.69,14.53-.36.26c.5.89.95,1.78,1.52,2.63a49.21,49.21,0,0,0,21.67,18,53.78,53.78,0,0,0,14.13,4.33c3,.44,4.2,2,4.33,5v3.1c0,.58-.31,1.38.31,1.64s1-.46,1.47-.84q9.7-8.16,19.37-16.49c1.44-1.21,1.44-1.49,0-2.73l-8.17-7L262.7,262.3c-.36-.3-.7-.87-1.24-.58s-.23.8-.25,1.21v3.43a4.69,4.69,0,0,1-4.06,5.13,43.95,43.95,0,0,1-37.29-7.4Z" style="fill:#dd493d"/><path d="M495.48,230.1v40.75c-.64,4.53-1.28,9-1.88,13.59-13.22,97.84-85.89,179.24-181.83,203.64a397.79,397.79,0,0,1-41,7.4H230.1c-4.51-.64-9-1.28-13.56-1.88C118.7,480.45,37.26,407.7,12.86,311.77a396.78,396.78,0,0,1-7.38-40.92V230.1q.93-6.78,1.87-13.57C20.55,118.64,93.22,37.36,189.12,12.86a392.67,392.67,0,0,1,41-7.4h40.75c4.53.62,9,1.28,13.56,1.88,97.84,13.07,179.26,85.9,203.7,181.83A408.48,408.48,0,0,1,495.48,230.1ZM250.71,15.15c-130.1.39-234.32,104.31-235.45,233.07-1,129.9,103.41,236.05,233.31,237.1S484.63,381.91,485.67,252C486.54,120.66,380.84,15.7,250.71,15.15Z" style="fill:#dd493d"/><path d="M454.25,243.66c.8,43.35-9.8,83.55-34.43,119.46-35.6,52-84.94,82.05-147.61,89-53.55,5.91-101.94-8.4-145-40.67-6.08-4.56-6.16-7.25-.81-12.61q136.7-136.73,273.43-273.41c5.15-5.15,7.89-5,12.3.7a202.42,202.42,0,0,1,40.94,101C453.73,232.58,454,238.09,454.25,243.66Zm-10.13,11.27a213.42,213.42,0,0,0-3.79-42.8,191.06,191.06,0,0,0-32.67-74.94c-1.45-2-2.72-2.41-4.49-.55-1,1-2,2-3,3q-100,100-200,200.05-30.68,30.63-61.33,61.3c-2.16,2.14-3.65,3.59,0,6.14,40.49,28.48,85.47,40.42,134.47,34.63,52.17-6.16,95.13-30.14,128.24-71.15,28.39-35.2,42.14-75.68,42.58-115.68Z" style="fill:#dd493d"/><path d="M244.49,46.74c48-1,91.47,12.57,129.89,41.67,6.43,4.9,6.45,7.44.6,13.29Q256.24,220.48,137.47,339.24q-17.59,17.6-35.2,35.16c-5.41,5.37-8.17,5.32-12.66-.63a197.17,197.17,0,0,1-39.72-93.56c-8.5-60,6.53-113.86,45.05-160.51C127.6,80.27,169.86,57,220.4,48.91A137,137,0,0,1,244.49,46.74Zm8.08,10.06A190,190,0,0,0,210.84,61C166.18,71,129.17,93.63,100.37,129.39,73.8,162.5,59.46,200.29,57.91,242.66A189.58,189.58,0,0,0,93.68,362c2,2.88,3.35,3.05,5.76.59,8-8.17,16.08-16.09,24.11-24.13L289.77,172.3l73-73.05c2-2,4.38-3.54.26-6.45A191.11,191.11,0,0,0,252.57,56.8Z" style="fill:#dd493d"/></svg>