<svg id="레이어_1" data-name="레이어 1" xmlns="http://www.w3.org/2000/svg" viewBox="0 0 500 500"><title>5대지 1</title><path d="M350,244.25c-.8,4.34-2.59,8.11-6.22,10.83-5.59,4.19-12.74,3.93-18.83-.66-.45-.34-.82-1.08-1.44-.84s-.48,1.14-.51,1.77c-.47,10.23-.37,20.48-.36,30.72,0,.88,0,1.77,0,2.65-.06,2.66-1.6,4.55-3.75,4.65s-4-1.49-4.13-4.27c-.13-4.19.17-8.39.19-12.59,0-9.43,0-18.87.05-28.3a3.9,3.9,0,0,0-1.65-3.35q-20.29-16.53-40.5-33.17c-6.6-5.42-13.22-10.81-19.8-16.26-1.16-1-2-.72-3.09.12q-19,15-38,29.93c-6.37,5-12.73,10-19.17,14.93a5.55,5.55,0,0,0-2.48,5c.08,13.42.22,26.84-.13,40.25-.25,9.88-.12,19.75-.26,29.62,0,2.7-1.73,4.72-3.91,4.67s-3.8-1.68-3.8-4.5c0-16.22,0-32.43,0-48.65,0-5.09,0-10.17,0-15.26a3.94,3.94,0,0,0-.38-2.4c-2.11,1.62-4.25,3.13-6.23,4.83-10.36,8.88-24.16,2-25.35-9.09a2.1,2.1,0,0,0-.26-.6v-2.66a16.74,16.74,0,0,1,6-10.69l33.72-26.44,42-33c5.5-4.32,10.82-8.92,17.77-10.85h6.19a25.93,25.93,0,0,1,7.65,4.31c3.49,2.93,7,5.81,10.56,8.7,2.64,2.15,5.29,4.28,8.37,6.78,0-4.14-.07-7.66,0-11.18s1.64-5.11,5-5.13q14.37,0,28.74,0c3.48,0,4.77,1.38,4.78,4.85,0,13.41.11,26.81,0,40.22a5.42,5.42,0,0,0,2.18,4.71c5.27,4.25,10.47,8.58,15.76,12.81,5,4,10.32,7.78,11.19,14.89ZM334.39,250c3.51,0,6-1.63,7.12-4.53,1.14-3.1.18-6.08-2.69-8.43q-8.55-7-17.08-14Q289.87,196.88,258,170.76c-2.24-1.83-4.74-3.19-7.72-1.94a29.5,29.5,0,0,0-7,3.72q-31.6,24.87-63.28,49.67c-6.2,4.86-12.44,9.68-18.61,14.58-3.66,2.91-4.43,7.17-2,10.29,2.72,3.5,7,3.95,10.74,1q17.6-13.74,35.13-27.54,21.57-16.92,43.13-33.82c2.53-2,3.94-2,6.51.09,5.72,4.63,11.39,9.34,17.09,14q29,23.71,58,47.43A6.32,6.32,0,0,0,334.39,250Zm-21.18-61.22c0-4.78,0-9.57,0-14.35,0-1.39-.3-2.23-1.94-2.22q-9.51.08-19,0c-1.4,0-2,.54-2,2,.05,3.83,0,7.65,0,11.48a3,3,0,0,0,1.21,2.47q9.83,8,19.64,16.06c.45.37,1,.94,1.54.72.78-.29.49-1.14.49-1.76C313.23,198.31,313.22,193.53,313.21,188.74Z" style="fill:#47aef7;stroke:#47aef7;stroke-miterlimit:10;stroke-width:5px"/><path d="M185.4,339.38c-1.68-1.51-3.31-3-2.36-5.64.74-2.05,2.38-2.91,4.3-3.41q14.85-3.91,29.71-7.8l33.34-8.72a16.87,16.87,0,0,1,2.81-.57c3.18-.27,4.44.52,5.61,3.46.62,1.57,1.26,3.15,1.75,4.77s1.42,2,3.12,1.38c14-4.94,27.95-9.79,41.93-14.67,1.81-.64,3.59-1.36,5.42-1.92s3.32-1.06,3.16-3.46c-.07-1.15,1-1.62,2-1.51A39.11,39.11,0,0,1,326.65,304c1.38.55,1.61,1.9.94,3.19a51.59,51.59,0,0,1-5.44,8c-1,1.21-2.58,1.44-3.39,0-1.15-2-2.42-1.34-3.91-.82l-54.08,18.76a12.92,12.92,0,0,1-2.32.71c-1.86.29-2.91-.79-3.5-2.37-.85-2.28-1.7-4.56-2.39-6.89-.51-1.69-1.29-2.14-3.06-1.66-12.65,3.44-25.33,6.75-38,10.16-7.53,2-15.13,3.81-22.57,6.18Z" style="fill:#47aef7;stroke:#47aef7;stroke-miterlimit:10;stroke-width:5px"/><path d="M249.62,225.59c18.58.07,34.85,14.44,34.74,35-.1,20.25-15.82,34.1-33.73,34.62-19,.55-35.7-13.83-35.86-34.5C214.61,240.25,230.77,225.61,249.62,225.59Zm-.09,61.87c15.11.54,27.23-11.82,27.28-26.91a27.26,27.26,0,0,0-54.51-.3C222.22,275.36,234.27,288,249.53,287.46Z" style="fill:#47aef7;stroke:#47aef7;stroke-miterlimit:10;stroke-width:5px"/><path d="M264.41,250.85c-.16.68-.36,1.47-.52,2.26-.32,1.6-1.51,3.45,1.35,4.11.7.16.86,1.13.74,1.92a1.69,1.69,0,0,1-1.57,1.61c-2.49,0-2.86,1.78-3.28,3.66-.59,2.65-1.31,5.28-2,7.93-.35,1.38-1,2.48-2.62,2.53s-2.47-1-2.87-2.51c-.84-3.21-1.67-6.41-2.54-9.61-.15-.54-.19-1.35-.91-1.34s-.75.82-.9,1.36c-.82,3.06-1.6,6.13-2.43,9.18-.31,1.14-.7,2.28-2,2.75-1.58.59-3-.12-3.49-2-.88-3.11-1.67-6.26-2.38-9.42-.32-1.4-.92-2.23-2.44-2.35a2,2,0,0,1-2.14-1.84,2,2,0,0,1,1.6-2.31c1.29-.3,1.14-1.09.92-2-.29-1.22-.64-2.43-.85-3.66a2.26,2.26,0,0,1,1.77-2.86,2.3,2.3,0,0,1,3,1.66c.52,1.61.93,3.26,1.31,4.91a1.93,1.93,0,0,0,2.11,1.77c1.24,0,1.68-.65,2-1.67s.65-2.27.92-3.41c.41-1.73.92-3.38,3.14-3.35s2.64,1.75,3.06,3.45c.28,1.14.65,2.26.93,3.41a1.78,1.78,0,0,0,2,1.56,1.84,1.84,0,0,0,2-1.59c.4-1.72.82-3.43,1.35-5.12a2.24,2.24,0,0,1,2.74-1.66C263.77,248.44,264.34,249.4,264.41,250.85Z" style="fill:#47aef7;stroke:#47aef7;stroke-miterlimit:10;stroke-width:5px"/></svg>