<svg id="레이어_1" data-name="레이어 1" xmlns="http://www.w3.org/2000/svg" viewBox="0 0 500 500"><title>8대지 1</title><path d="M229.64,128.64A113,113,0,0,1,246,131.36a87.16,87.16,0,0,1,36.39,18.4,55.64,55.64,0,0,1,14.32,18,40.16,40.16,0,0,1,3.4,14,98.55,98.55,0,0,1-1,23.77c-.72,4.5,2.27,7.38,5.08,10a43.48,43.48,0,0,0,16,9.46c5.23,1.75,7.6,7.17,6.34,13.34-1.64,7.88-6.7,13.07-13.45,16.78-2.43,1.34-3.93,2.34-3.26,5.5.54,2.72,0,5.59.47,8.38a7.51,7.51,0,0,1-2.33,6.15c-6,7-13.92,9.8-22.72,10.69-.89.09-2.28-.49-2.54.49s.82,2.13,1.77,2.8A31.48,31.48,0,0,0,299.55,295c4.9.52,7.06,3.26,5.77,8a47.51,47.51,0,0,0-1.05,17.17c.11,1.31,0,2.65,0,4,.11,6.2-3,10.3-8.44,12.82-7.76,3.58-16.08,4.8-24.5,5.65-5.08.51-10.13.31-15.21.41a95,95,0,0,1-9.54-.75c-9.28-.8-16.33,3.12-21.64,10.47A38.39,38.39,0,0,0,219.43,363a6.12,6.12,0,0,1-4.2,4,66.29,66.29,0,0,1-12.78,2.59H189.38c-.61-.11-1.21-.27-1.82-.37a44.89,44.89,0,0,1-15.56-4.9,70.29,70.29,0,0,1-19.93-16.42c-2.76-3.27-5.21-6.87-5.54-11.43a6.41,6.41,0,0,1,2.09-5.93,24.35,24.35,0,0,0,6.46-8.17c4.39-8.31,4.13-17,1.43-25.69-2.9-9.46-8.16-17.67-13.57-25.83A95.77,95.77,0,0,1,126.8,213a81.48,81.48,0,0,1,8.48-33.07,84.61,84.61,0,0,1,23-28.21,101.43,101.43,0,0,1,47.37-21.82c2.68-.48,5.39-.8,8.07-1.2ZM260.48,333A75.6,75.6,0,0,0,276,332,47.32,47.32,0,0,0,291,327.94a5.25,5.25,0,0,0,3.27-5.31c0-4.9-1.08-9.8-.16-14.7.63-3.39.39-3.44-3.09-4.39-1-.26-2-.52-2.91-.85-10-3.58-16.94-9.8-18.44-20.88a4.91,4.91,0,0,1,5.26-6c2.81,0,5.64.15,8.45,0a24.11,24.11,0,0,0,14.11-4.9,5.74,5.74,0,0,0,2.42-5c0-3.84-.62-7.61-.54-11.44a6,6,0,0,1,4.37-6.43,25.14,25.14,0,0,0,4.9-2.29,17.3,17.3,0,0,0,7.83-8.72c.6-1.63.31-2.76-1.42-3.27a48.4,48.4,0,0,1-17-10c-6.42-5.61-10.13-12.31-8.55-21.23a57.42,57.42,0,0,0,1.07-14.21c-.41-5.49-.3-11.06-3-16.19A49.32,49.32,0,0,0,276,157.84c-14-12.09-30.49-18-48.74-19.24a81.68,81.68,0,0,0-39.2,7c-17.26,7.71-31.47,18.8-41.44,35-9.34,15.18-11.91,31.64-9.36,49,2,13.72,7.84,25.9,15.44,37.33,5.81,8.74,11.07,17.74,13.78,28,3.89,14.82,2.14,28.49-8.06,40.45a2.48,2.48,0,0,0-.29,3.5,2,2,0,0,0,.29.29,81,81,0,0,0,7.8,8.34C178.39,359,192.6,362,208.54,358.37a3.68,3.68,0,0,0,2.84-2.42,52.21,52.21,0,0,1,5.52-9.8,32.58,32.58,0,0,1,29.7-14.09A119.26,119.26,0,0,0,260.48,333Z" style="fill:#dd493d"/><path d="M371.7,288.9c-1.64,3.78-4.48,5.28-8.51,5.26-10.85-.08-21.69,0-32.54,0a6.74,6.74,0,0,1-6.53-3.72A7.09,7.09,0,0,1,330.47,280h34.19a7.3,7.3,0,0,1,7,5.21Z" style="fill:#dd493d"/><path d="M323.43,274a7.2,7.2,0,0,1-3.95-13.33c3-1.63,6.11-3.12,9.21-4.59q11.21-5.3,22.43-10.52a7.26,7.26,0,0,1,10.24,8.82,6.79,6.79,0,0,1-3.76,4.27c-10.19,4.9-20.4,9.8-30.61,14.58A7.21,7.21,0,0,1,323.43,274Z" style="fill:#dd493d"/><path d="M323.51,300.17c2-.16,3.89,1,5.77,1.9q14.12,6.53,28.11,13.28a7.28,7.28,0,0,1-5.24,13.59,6.8,6.8,0,0,1-.67-.3c-4.38-1.84-8.65-4-12.94-6-6.14-2.88-12.32-5.69-18.39-8.69a7.31,7.31,0,0,1,3.36-13.81Z" style="fill:#dd493d"/><path d="M495.48,230.1v40.75c-.64,4.53-1.28,9-1.88,13.59-13.22,97.84-85.89,179.24-181.83,203.64a397.79,397.79,0,0,1-41,7.4H230.1c-4.51-.64-9-1.28-13.56-1.88C118.7,480.45,37.26,407.7,12.86,311.77a396.78,396.78,0,0,1-7.38-40.92V230.1q.93-6.78,1.87-13.57C20.55,118.64,93.22,37.36,189.12,12.86a392.67,392.67,0,0,1,41-7.4h40.75c4.53.62,9,1.28,13.56,1.88,97.84,13.07,179.26,85.9,203.7,181.83A408.48,408.48,0,0,1,495.48,230.1ZM250.71,15.15c-130.1.39-234.32,104.31-235.45,233.07-1,129.9,103.41,236.05,233.31,237.1S484.63,381.91,485.67,252C486.54,120.66,380.84,15.7,250.71,15.15Z" style="fill:#dd493d"/><path d="M454.25,243.66c.8,43.35-9.8,83.55-34.43,119.46-35.6,52-84.94,82.05-147.61,89-53.55,5.91-101.94-8.4-145-40.67-6.08-4.56-6.16-7.25-.81-12.61q136.7-136.73,273.43-273.41c5.15-5.15,7.89-5,12.3.7a202.42,202.42,0,0,1,40.94,101C453.73,232.58,454,238.09,454.25,243.66Zm-10.13,11.27a213.42,213.42,0,0,0-3.79-42.8,191.06,191.06,0,0,0-32.67-74.94c-1.45-2-2.72-2.41-4.49-.55-1,1-2,2-3,3q-100,100-200,200.05-30.68,30.63-61.33,61.3c-2.16,2.14-3.65,3.59,0,6.14,40.49,28.48,85.47,40.42,134.47,34.63,52.17-6.16,95.13-30.14,128.24-71.15,28.39-35.2,42.14-75.68,42.58-115.68Z" style="fill:#dd493d"/><path d="M244.49,46.74c48-1,91.47,12.57,129.89,41.67,6.43,4.9,6.45,7.44.6,13.29Q256.24,220.48,137.47,339.24q-17.59,17.6-35.2,35.16c-5.41,5.37-8.17,5.32-12.66-.63a197.17,197.17,0,0,1-39.72-93.56c-8.5-60,6.53-113.86,45.05-160.51C127.6,80.27,169.86,57,220.4,48.91A137,137,0,0,1,244.49,46.74Zm8.08,10.06A190,190,0,0,0,210.84,61C166.18,71,129.17,93.63,100.37,129.39,73.8,162.5,59.46,200.29,57.91,242.66A189.58,189.58,0,0,0,93.68,362c2,2.88,3.35,3.05,5.76.59,8-8.17,16.08-16.09,24.11-24.13L289.77,172.3l73-73.05c2-2,4.38-3.54.26-6.45A191.11,191.11,0,0,0,252.57,56.8Z" style="fill:#dd493d"/></svg>