<svg id="레이어_1" data-name="레이어 1" xmlns="http://www.w3.org/2000/svg" viewBox="0 0 500 500"><title>3대지 1</title><path d="M162,176.79a7.08,7.08,0,0,1,.64-6.19,5.42,5.42,0,0,1,4.06-2.56A7,7,0,0,1,175,173l13.66,54h38.42l14.09-52.08q1.92-7.05,8.75-7.05t8.75,7.05L273,227h38.63L325,173.59a6.74,6.74,0,0,1,3.2-4.91,7,7,0,0,1,5.12-.64,6.8,6.8,0,0,1,4.06,2.77,7.81,7.81,0,0,1,.64,6L325.45,227h20.07Q350,227,350,231c-.14,2.85-1.64,4.27-4.48,4.27h-22l-22.41,89.22q-1.92,7.69-8.11,7.69-6,0-8.11-7.69L261,235.27H239l-24.12,89.44q-2.35,7.47-8.33,7.47-5.76,0-7.68-7.26l-22.41-89.65H154.06q-4.06,0-4.06-4.27.21-4,4.27-4.05h20.28ZM207.2,300.16l17.72-64.89H190.55ZM241.14,227h17.5l-8.75-32.23ZM293,300.16l16.44-64.89H275.08Z" style="fill:#47aef7"/></svg>