<svg id="레이어_1" data-name="레이어 1" xmlns="http://www.w3.org/2000/svg" viewBox="0 0 500 500"><title>4대지 1</title><path d="M350,215.78c-1.78,5-3.57,6.25-9.06,6.3-5.83,0-5.07-.77-5.08,5q0,25,0,50c0,6.23-2.72,8.95-8.93,8.95H230c-6.33,0-9-2.71-9-9.11q0-25,0-50c0-5.56.68-4.83-4.79-4.91a16.65,16.65,0,0,1-3.32-.17c-3.06-.68-5.13-2.39-5.78-5.67a8,8,0,0,1,2.6-8q9.72-8.73,19.54-17.36c8.57-7.58,17.18-15.12,25.75-22.71,5.85-5.19,11.69-10.4,17.47-15.69a17.27,17.27,0,0,1,4.17-2.46h3.55a16.58,16.58,0,0,1,3.31,1.76c4.36,3.76,8.62,7.64,12.92,11.48,4.51,4,9,8.1,13.53,12.12q9.34,8.31,18.74,16.59c4.7,4.15,9.51,8.19,14.08,12.48,2.74,2.57,6.43,4.45,7.2,8.68Zm-8.78-1.45.37-.59a13.71,13.71,0,0,1-1.22-.9l-35-31.13c-8.3-7.37-16.63-14.72-24.88-22.16-1.53-1.38-2.6-1.3-4.09,0-7,6.3-14,12.53-21.05,18.77Q240,192,224.61,205.67c-3.07,2.73-6.12,5.48-9.67,8.66h9.44c4.85,0,4.36-.38,4.4,4.46.16,18.8-.34,37.62.29,56.42.05,1.67.17,2.85,2.34,2.83,7.7-.08,15.41,0,23.11,0,1.46,0,2.16-.52,2.18-2.07.05-3.55.27-7.1.28-10.65,0-9.55,0-19.11,0-28.67,0-5.39,2.67-8.07,8-8.08,8.66,0,17.33,0,26,0,6.45,0,8.81,2.38,8.87,8.82.1,12.66-.3,25.32.28,38,.07,1.43.05,2.68,2,2.67,7.85,0,15.7,0,23.55,0,1.38,0,2-.56,2-2,.05-3,.28-6.06.29-9.09q0-24.78,0-49.55c0-3.05,0-3.06,3.13-3.06Zm-49,42.79c0-6.15,0-12.29,0-18.44,0-1.77-.58-2.53-2.44-2.52q-11.32.1-22.66,0c-1.93,0-2.58.71-2.57,2.61q.08,18.33,0,36.66c0,1.87.59,2.65,2.55,2.63q11.22-.12,22.44,0c2,0,2.71-.72,2.68-2.73C292.19,269.26,292.25,263.19,292.25,257.12Z" style="fill:#47aef7;stroke:#47aef7;stroke-miterlimit:10;stroke-width:5px"/><path d="M330.44,350c-3.52-2.6-3.68-4.65-.57-7.75,2-2,4-3.89,6.08-5.95a5.64,5.64,0,0,0-3.2-.44H170.15a23.57,23.57,0,0,1-2.66-.05,3.37,3.37,0,0,1-3.29-3.29,23.57,23.57,0,0,1,0-2.66q0-81.3,0-162.6a5.64,5.64,0,0,0-.44-3.2c-2.06,2.11-4,4.11-5.95,6.08-3.1,3.11-5.15,3-7.75-.57v-2.67c2.24-2.95,5.09-5.31,7.64-8,2.9-3,5.87-6,8.8-8.93H170c2.15,1.4,3.4,3.67,5.23,5.4,3.34,3.14,6.54,6.44,9.76,9.72,1.93,2,2,4.13.32,5.87s-4,1.75-6-.29-4.19-4.36-6.28-6.54c-1,.8-.69,1.6-.69,2.27q0,79.22-.06,158.42c0,2.25.65,2.9,2.89,2.9q79.22-.09,158.43-.05a3.5,3.5,0,0,0,2.25-.4c-2.27-2.29-4.5-4.49-6.68-6.74-1.7-1.76-1.88-3.7-.58-5.38,1.61-2.1,4.14-2.28,6.16-.32q5.64,5.52,11.15,11.16c1.34,1.37,3.18,2.22,4.13,4v3.56c-2.87,2.83-5.72,5.69-8.62,8.49-2.76,2.65-5.22,5.61-8.27,7.95Z" style="fill:#47aef7;stroke:#47aef7;stroke-miterlimit:10;stroke-width:5px"/></svg>