<svg id="레이어_1" data-name="레이어 1" xmlns="http://www.w3.org/2000/svg" viewBox="0 0 500 500"><title>6대지 1</title><path d="M257.62,27.37C273,31.64,282.94,42.3,290.41,55.72Q365.21,189.61,440,323.5q22.65,40.49,45.24,80.77c4.49,8,8.49,16.21,9.31,25.46,1.85,21.59-10.56,37.21-32.32,40.91a86.49,86.49,0,0,1-15,1.28h-396a65.09,65.09,0,0,1-24.68-4c-16.67-6.71-24.42-21.39-21-39.06,2.74-14.28,11.06-25.9,18-38.11q93-163.65,186.25-327.12,3.69-6.55,7.72-12.92c7.23-11.35,16.63-20,30-23.32ZM447.15,432.54v.52h5.6c4.73,0,5.1-1.67,2.81-5.72Q418.21,361.19,381.2,294.9,319,184,256.74,73.16c-5.46-9.7-5.65-9.67-11.16,0q-41.45,72.68-82.82,145.36Q103,323.45,43.23,428.23c-.71,1.23-2.47,2.46-1.55,3.9s2.69.74,4.09.74c14.48,0,29-.28,43.45-.33,11.69,0,23.36.18,35.06.15s22.64-.27,34-.27c11.69,0,23.39.4,35.08.35,19.1,0,38.22-.4,57.34-.4s39,.45,58.44.45c18.93,0,37.85-.42,56.75-.5q40.67.23,81.29.22Z" style="fill:#dd493d"/><path d="M250.64,201.15a33.22,33.22,0,0,1,14.95,5.48c5.82,3.68,6.84,9.45,6.44,15.62-1.85,27.8-4.93,55.53-5.23,83.44a34.11,34.11,0,0,1-4.74,17c-4.76,8.14-12.18,8.56-17.78.89a41.13,41.13,0,0,1-7.06-20.33c-2.05-18.46-3.63-37-5.65-55.41a203.88,203.88,0,0,0-3.4-21.44C224.89,211,232.78,201,250.64,201.15Z" style="fill:#dd493d"/><path d="M274.79,368.23A24.16,24.16,0,1,1,250.72,344h.05A24.38,24.38,0,0,1,274.79,368.23Z" style="fill:#dd493d"/></svg>