<svg id="레이어_1" data-name="레이어 1" xmlns="http://www.w3.org/2000/svg" viewBox="0 0 500 500"><title>7대지 1</title><path d="M250,494.94H40.4a41.72,41.72,0,0,1-6.22-.19,8.65,8.65,0,0,1-7.48-8.59,8.25,8.25,0,0,1,7.36-8.11,56.37,56.37,0,0,1,9.54-.54c3.57.09,5.46-1.05,5-4.95a51.46,51.46,0,0,1,0-5.27V171.54c0-10.93,2.33-13.27,13.13-13.27,19.3,0,38.61-.15,57.9.09,4.72,0,6-1.56,5.93-6.06-.2-19.13-.13-38.28-.09-57.41,0-11.12,2.86-13.88,13.92-13.92,4.78,0,9.59-.18,14.29,0,3.7.16,5.11-1.14,5-5-.22-9.07-.11-18.18,0-27.28,0-8.62,3.14-11.77,11.88-11.84,9.09,0,18.18-.13,27.27,0,3.77,0,5.1-1.3,4.93-5-.23-5.89-.12-11.81,0-17.7.13-6.27,2.54-8.93,7.92-9.16,6.29-.22,8.93,2.05,9.39,8.69.38,6,.33,12.12.18,18.17-.1,3.74,1.34,5.09,5,5,8.93-.16,17.86-.12,26.8,0s12.11,3.36,12.2,12.24.12,17.86,0,26.79c0,3.72,1.34,5.1,5.05,5,11.72-.18,10.27.9,10.31-10.22V49.19c.11-8.93,3.38-12.29,12.15-12.29H439.26c9.27,0,12.13,3.05,12.13,12.5V468.61c0,8.94-1.16,8.7,8.34,8.79a40.23,40.23,0,0,1,6.2.54,8.4,8.4,0,0,1,7.38,8.59,8.8,8.8,0,0,1-7.95,8.22,49.82,49.82,0,0,1-5.73.12ZM433.87,266.09h0V60.84c0-4.59-1-6.45-6.08-6.43q-62.43.29-124.88,0c-4.72,0-5.86,1.53-5.83,6,.16,34.62.09,69.22.09,103.82,0,29,.09,58.06-.1,87.09,0,4.68,1.5,6.21,6,5.93a136.42,136.42,0,0,1,14.3,0c3.75.14,6.32-.47,7.14-4.92A7.34,7.34,0,0,1,332,246.6c3.58-.14,7.33,1.34,8,4.86,1.14,6.34,5.22,5.88,9.81,5.81,3.87,0,7,0,8-5.08.77-3.94,4.34-5.94,8.44-5.57a8.18,8.18,0,0,1,7.57,6.88,49.15,49.15,0,0,1,.59,11.43v206.2c0,6,.27,6.33,6.11,6.33h46.87c6.17,0,6.4-.29,6.4-6.56ZM202.76,326.54q0-72.51.09-145c0-4.38-1.28-5.81-5.7-5.79-41,.12-82,0-123,.09-8,0-8,0-8,7.79V470.77c0,6.36.22,6.6,6.33,6.63,8.46,0,16.91-.16,25.36.11,4.49.14,5.83-1.61,5.72-5.9-.22-8.93-.16-17.86,0-26.79.14-7.72,3-11,10.61-11.22q20.31-.45,40.67,0c7.4.2,10.17,3.57,10.24,11,0,9.25.16,18.51,0,27.76,0,3.71,1.2,5.14,5,5.07,8.61-.16,17.22,0,25.85,0,6.89,0,6.91,0,6.91-6.82Zm154.17,49.82q0-47.85.09-95.73c0-4.48-1.13-6.05-5.86-6-24.57.24-49.13.11-73.71.11-17.38,0-34.78.09-52.16,0-3.75,0-5.18,1.23-5,5,.22,5.26,0,10.53,0,15.8V471.15c0,6,.29,6.31,6.09,6.31h124c6.5,0,6.5,0,6.5-6.76q.12-47.18.11-94.34ZM279.65,178.2h0V104c0-4.09-1.16-5.55-5.36-5.55q-63,.21-125.87,0c-4.16,0-5.52,1.19-5.46,5.36.21,16.07.28,32.15,0,48.23-.09,5,1.44,6.2,6.23,6.12,19.94-.25,39.89-.12,59.83-.08,6.57,0,8.93,1.53,10.71,7.27a4.35,4.35,0,0,0,4.83,3.57c6.21,0,12.5-.2,18.65.14s10,4.09,9.82,8.93-4.12,8.33-10.31,8.45-12.11.15-18.18,0c-3.13,0-4.27,1.25-4.22,4.27.09,5.9.11,11.81,0,17.71,0,3.28,1.33,4.57,4.58,4.52,6.21,0,12.5-.2,18.65.17s9.59,4,9.52,8.76-4.11,8.48-10.15,8.61c-5.75.12-11.5.27-17.24,0-4.32-.23-5.61,1.53-5.36,5.57a144.79,144.79,0,0,1,0,15.31c-.25,4.45,1.5,5.81,5.85,5.75,15.77-.19,31.58,0,47.37-.09,6,0,6.16-.16,6.16-6.21Q279.69,214.57,279.65,178.2ZM211.53,81c10.2,0,20.4-.09,30.61,0,3.57,0,4.85-1.21,4.71-4.75-.2-5.74-.16-11.49,0-17.22,0-3.18-.86-4.61-4.3-4.59q-30.86.15-61.71,0c-3.68,0-4.69,1.57-4.6,4.89.14,5.36.23,10.86,0,16.26-.22,4.32,1.64,5.5,5.66,5.36C191.76,80.84,201.64,81,211.53,81ZM134.2,450.89h-9.57c-2.32,0-3.58.81-3.58,3.33v19.65c0,1.42,0,3.14,2,3.21,2.25.11,2.36-1.79,2.41-3.34.11-3,0-6.09.23-9.09.61-5.68,3.93-8.77,8.93-8.63s8.08,3.57,8.4,9.18c.16,3,0,6.06.11,9.08,0,1.34.21,2.69,1.89,2.82,2,.12,2.39-1.32,2.43-2.84v-10C147.48,450.89,147.48,450.89,134.2,450.89Z" style="fill:#38bb0c"/><path d="M407.2,260.57a49.49,49.49,0,0,1,0,6.67,8.44,8.44,0,0,1-8.19,7.32,8.12,8.12,0,0,1-8.37-6.47,31.92,31.92,0,0,1-.2-14.29,8.49,8.49,0,0,1,16.9,1c.16,1.89,0,3.82,0,5.71Z" style="fill:#38bb0c"/><path d="M407.2,150.82a45.52,45.52,0,0,1,0,6.18,8.45,8.45,0,0,1-16.71.55,34.41,34.41,0,0,1,0-14.29,8.42,8.42,0,0,1,8.45-7,8.71,8.71,0,0,1,8.31,7.8,57.09,57.09,0,0,1,0,6.67Z" style="fill:#38bb0c"/><path d="M407.2,370.7c0,1.91.14,3.84,0,5.72a8.81,8.81,0,0,1-8.33,8.31,8.53,8.53,0,0,1-8.57-7.42,36.21,36.21,0,0,1,0-13.29,8.67,8.67,0,0,1,8.61-7.39,8.92,8.92,0,0,1,8.32,8.36C407.39,366.88,407.2,368.79,407.2,370.7Z" style="fill:#38bb0c"/><path d="M341.31,149.71c-.17,3.25.22,5.81-.57,8.29a8.2,8.2,0,0,1-8.45,6.38,8,8,0,0,1-7.86-6.49,31.81,31.81,0,0,1,0-14.65,8.43,8.43,0,0,1,8.52-6.89,8.67,8.67,0,0,1,8.11,7.43A45.18,45.18,0,0,1,341.31,149.71Z" style="fill:#38bb0c"/><path d="M407.41,95.42a59.18,59.18,0,0,1-.34,6.66,8.46,8.46,0,0,1-16.68.25,35,35,0,0,1,0-13.75,8.43,8.43,0,0,1,16.72.18,49.34,49.34,0,0,1,0,6.66Z" style="fill:#38bb0c"/><path d="M356.78,205.36a55.14,55.14,0,0,1,.58-7.15,7.91,7.91,0,0,1,8.09-6.72,7.83,7.83,0,0,1,8.34,6.38A32.12,32.12,0,0,1,374,212a8.12,8.12,0,0,1-8.59,7.14,8.59,8.59,0,0,1-8.24-7.79,49,49,0,0,1,0-6.18Z" style="fill:#38bb0c"/><path d="M407.2,426.06a45.52,45.52,0,0,1,0,6.18,8.45,8.45,0,0,1-16.74.29,36.1,36.1,0,0,1-.09-13.27c.93-4.9,4.32-7.67,8.93-7.4a8.33,8.33,0,0,1,8,8q.15,3.09,0,6.18Z" style="fill:#38bb0c"/><path d="M341.1,95.37a43.55,43.55,0,0,1,0,6.66,8.17,8.17,0,0,1-8.2,7.15,8.06,8.06,0,0,1-8.45-6.85,34.54,34.54,0,0,1-.16-13.25c.93-5,4.22-7.88,8.72-7.72s7.89,3.47,8.29,8.74c.12,1.78,0,3.48,0,5.23Z" style="fill:#38bb0c"/><path d="M356.78,95.26a48.76,48.76,0,0,1,.58-7.14,7.86,7.86,0,0,1,8.09-6.69,7.77,7.77,0,0,1,8.32,6.38A32.73,32.73,0,0,1,374,102a8.24,8.24,0,0,1-8.67,7.14,8.41,8.41,0,0,1-8.18-7.79,48.7,48.7,0,0,1,0-6.16Z" style="fill:#38bb0c"/><path d="M356.75,150.12c.25-2.7,0-5.36,1-8a8.24,8.24,0,0,1,8.49-5.67,7.74,7.74,0,0,1,7.5,6.26,34.21,34.21,0,0,1,.2,14.63,8.13,8.13,0,0,1-7.83,7.14,8.45,8.45,0,0,1-8.64-6.73A52.64,52.64,0,0,1,356.75,150.12Z" style="fill:#38bb0c"/><path d="M341.1,206a42.22,42.22,0,0,1,0,6.16,8.3,8.3,0,0,1-8.18,7.15,8.11,8.11,0,0,1-8.49-6.79,33.89,33.89,0,0,1,0-14.18,7.88,7.88,0,0,1,8-6.77,8.1,8.1,0,0,1,8.51,6.78,58.36,58.36,0,0,1,.5,7.58Z" style="fill:#38bb0c"/><path d="M407.41,205.78a54.79,54.79,0,0,1-.37,6.65,8.21,8.21,0,0,1-8.45,6.88,7.71,7.71,0,0,1-8.11-6.59,34,34,0,0,1-.11-14.3,8.45,8.45,0,0,1,16.67.16A59.77,59.77,0,0,1,407.41,205.78Z" style="fill:#38bb0c"/><path d="M407.2,315.5a57.91,57.91,0,0,1,0,6.18,8.46,8.46,0,0,1-8.15,7.85,8.33,8.33,0,0,1-8.68-7.15,35.56,35.56,0,0,1,0-13.25,8.05,8.05,0,0,1,8.48-7.33,8.37,8.37,0,0,1,8.42,8c.18,1.9,0,3.81,0,5.72Z" style="fill:#38bb0c"/><path d="M158.89,282.17a49.61,49.61,0,0,1,0-5.72,8.59,8.59,0,0,1,8.2-7.91,8.39,8.39,0,0,1,8.52,6.89,32.75,32.75,0,0,1,0,14.21,8.53,8.53,0,0,1-8.45,7,8.68,8.68,0,0,1-8.29-7.81A59.54,59.54,0,0,1,158.89,282.17Z" style="fill:#38bb0c"/><path d="M92.79,282.26a45.81,45.81,0,0,1,0-6.2,8.45,8.45,0,0,1,16.69-.75,32.45,32.45,0,0,1,0,14.67,8.16,8.16,0,0,1-8.29,6.61,8.4,8.4,0,0,1-8.27-7.15,47.4,47.4,0,0,1,0-7.15Z" style="fill:#38bb0c"/><path d="M92.79,392.5a43.68,43.68,0,0,1,0-6.67,8.56,8.56,0,0,1,8.38-7.14,8.16,8.16,0,0,1,8.24,6.66,34.18,34.18,0,0,1,.18,13.74,8.53,8.53,0,0,1-8.94,7.64,8.82,8.82,0,0,1-7.86-8.45c-.14-1.91,0-3.82,0-5.73Z" style="fill:#38bb0c"/><path d="M158.62,392.62A54.54,54.54,0,0,1,159,386a8.4,8.4,0,0,1,16.63-.27,32.38,32.38,0,0,1,0,13.72,8.48,8.48,0,0,1-8.62,7.32,8.7,8.7,0,0,1-8.15-7.93,49,49,0,0,1,0-6.18Z" style="fill:#38bb0c"/><path d="M143.15,227.31a58.77,58.77,0,0,1-.34,6.63,8.56,8.56,0,0,1-8.52,7.46,8.22,8.22,0,0,1-8.23-7.14A35.2,35.2,0,0,1,126,221a8.25,8.25,0,0,1,8.93-7.41,8.38,8.38,0,0,1,8,8,45.33,45.33,0,0,1,0,5.71Z" style="fill:#38bb0c"/><path d="M143.24,392.92c-.27,2.7,0,5.36-1,8a8.17,8.17,0,0,1-7.95,5.73,7.84,7.84,0,0,1-8-6.23,33.53,33.53,0,0,1-.24-14.65,8.12,8.12,0,0,1,7.79-7.15,8.41,8.41,0,0,1,8.7,6.68A52.22,52.22,0,0,1,143.24,392.92Z" style="fill:#38bb0c"/><path d="M143.22,337.37a57.38,57.38,0,0,1-.6,7.41,8.42,8.42,0,0,1-16.28.81,29.35,29.35,0,0,1,0-16,7.63,7.63,0,0,1,8.26-5.83,7.9,7.9,0,0,1,7.89,6.35A42.94,42.94,0,0,1,143.22,337.37Z" style="fill:#38bb0c"/><path d="M142.81,283a20.26,20.26,0,0,1-.44,7.56,8.23,8.23,0,0,1-8.67,5.93,7.88,7.88,0,0,1-7.54-6.79A33.9,33.9,0,0,1,126,276a8.61,8.61,0,0,1,8.5-7.5,8.76,8.76,0,0,1,8.31,7.81A48.47,48.47,0,0,1,142.81,283Z" style="fill:#38bb0c"/><path d="M158.89,227.52a46,46,0,0,1,0-6.64,8.36,8.36,0,0,1,8.63-7.29,8.13,8.13,0,0,1,8.09,7.15,34,34,0,0,1,0,13.25c-1,4.93-4.29,7.56-9,7.25a8.37,8.37,0,0,1-7.88-8.09,54.57,54.57,0,0,1,0-5.72Z" style="fill:#38bb0c"/><path d="M110.35,227.42c-.25,2.35-.32,4.75-.78,7.14A8.44,8.44,0,0,1,93,234.29,72.06,72.06,0,0,1,93,221a8.44,8.44,0,0,1,16.73-.15C110.05,222.93,110.12,225.17,110.35,227.42Z" style="fill:#38bb0c"/><path d="M92.79,337.55a46.13,46.13,0,0,1,0-6.65,8.2,8.2,0,0,1,8.22-7.14,8,8,0,0,1,8.43,6.84,34.44,34.44,0,0,1,.16,13.23c-.91,5-4.21,7.88-8.71,7.69S93,347.94,92.6,342.8c-.13-1.79,0-3.57,0-5.24Z" style="fill:#38bb0c"/><path d="M158.89,337.55a49,49,0,0,1,0-6.18,8.28,8.28,0,0,1,8.32-7.6,8.08,8.08,0,0,1,8.44,6.86,34.82,34.82,0,0,1,0,13.72,8.45,8.45,0,0,1-16.72-.19,43.42,43.42,0,0,1,0-6.65Z" style="fill:#38bb0c"/><path d="M312.86,376V303.75a32.21,32.21,0,0,1,.28-5.72,8.59,8.59,0,0,1,8.65-7.46A8.23,8.23,0,0,1,329.9,298a31.39,31.39,0,0,1,.48,5.65v144a33.94,33.94,0,0,1-.69,7.59,7.72,7.72,0,0,1-8.31,6.45,7.87,7.87,0,0,1-8-6.36,24.88,24.88,0,0,1-.53-6.15Q312.84,412.58,312.86,376Z" style="fill:#38bb0c"/><path d="M297.23,376.53v72.7a30.69,30.69,0,0,1-.25,5.25,8.55,8.55,0,0,1-8.22,7.33,8.63,8.63,0,0,1-8.45-7.06,31.21,31.21,0,0,1-.61-6.18V304.11a34.52,34.52,0,0,1,.63-6.65,7.84,7.84,0,0,1,8-6.84,8,8,0,0,1,8.34,6.55,26,26,0,0,1,.5,6.15Q297.25,339.92,297.23,376.53Z" style="fill:#38bb0c"/><path d="M246.82,376.38V303.66a36.48,36.48,0,0,1,.17-5.23,8.94,8.94,0,0,1,8.33-7.9,8.5,8.5,0,0,1,8.5,7.5,38.13,38.13,0,0,1,.5,6.67V451.55c-.44,6.36-4,10.38-9.11,10.24s-8.36-4.22-8.38-10.72Q246.79,413.71,246.82,376.38Z" style="fill:#38bb0c"/><path d="M211.32,142.56c-10.36,0-20.72.11-31.06,0-6.4-.09-10-3.3-10.08-8.45a7.66,7.66,0,0,1,6.4-8.28,33.19,33.19,0,0,1,7.57-.68h54.48a43,43,0,0,1,7.6.64,7.93,7.93,0,0,1,6.64,7.73c.32,4.08-1.93,6.92-5.8,8.38a15.71,15.71,0,0,1-5.65.74h-30.1Z" style="fill:#38bb0c"/></svg>