<svg id="레이어_1" data-name="레이어 1" xmlns="http://www.w3.org/2000/svg" viewBox="0 0 500 500"><title>1대지 1</title><path d="M150,315.4V181.62a11.58,11.58,0,0,1,3.56,1.75q21.8,12.44,43.54,24.93a3.66,3.66,0,0,0,4.26,0c3.8-2.3,7.64-4.55,11.57-6.61,1.72-.9,2-2,1.75-3.73a35.7,35.7,0,0,1,17.51-36.72,43.56,43.56,0,0,1,12.48-4.48h10.66c5.71,1.19,11.15,3.06,15.82,6.67,11.32,8.79,16.05,20.34,14.15,34.54-.23,1.77,0,2.87,1.78,3.72a67.15,67.15,0,0,1,7.32,4.19,4.21,4.21,0,0,0,5.05.06q23.44-13.57,47-27a11.05,11.05,0,0,1,3.56-1.75V311.4c-.59.3-1.2.58-1.77.92-16.29,9.52-33,18.41-49,28.42a2.84,2.84,0,0,1-3.4.23c-14.47-8.4-29-16.65-43.5-25.05a4.16,4.16,0,0,0-4.83.06c-15.17,8.95-30.71,17.26-45.69,26.54a3.8,3.8,0,0,1-4.46.05Q173.74,328.92,150,315.4Zm195.38-68.48V188.48c0-3.24,0-3.23-2.73-1.67-14.45,8.3-28.92,16.56-43.34,24.91a3.93,3.93,0,0,1-4.66,0c-3.07-1.94-6.3-3.6-9.41-5.47-1.39-.84-2.18-.58-2.64.93a17.44,17.44,0,0,1-2.09,4.38q-10.68,16.63-21.31,33.31c-1.47,2.31-1.47,2.29,1.16,2.86,4.75,1.05,9.3,2.58,13,5.84,4.64,4.05,4.64,9.33,0,13.41a21,21,0,0,1-7.08,4.09,48.48,48.48,0,0,1-32.44.11,23.23,23.23,0,0,1-5.72-2.92c-6.82-4.74-6.8-11.3.1-16a28.32,28.32,0,0,1,4.08-2.24,33.88,33.88,0,0,1,7.84-2.4c2.37-.44,2.38-.49,1-2.58-3.18-5-6.44-9.94-9.55-15-4.8-7.82-10.31-15.2-14.51-23.39-.78-1.5-1.59-.87-2.5-.35-4.44,2.53-8.91,5-13.28,7.65a3.83,3.83,0,0,1-4.46,0c-13.21-7.64-26.47-15.19-39.71-22.77-2.58-1.47-2.63-1.45-2.63,1.4q0,58.54,0,117.1a4,4,0,0,0,2.37,4q19.92,11.27,39.72,22.74a4.7,4.7,0,0,0,5.44-.08c15.12-8.76,30.32-17.38,45.45-26.13a4.22,4.22,0,0,1,4.86,0c14,8.12,28.14,16.13,42.18,24.24a4.26,4.26,0,0,0,4.88.1q21.72-12.6,43.56-25a4.18,4.18,0,0,0,2.38-4.23C345.36,285.88,345.38,266.4,345.38,246.92ZM281,192.4c-.13-1.18-.28-2.35-.4-3.53a30.83,30.83,0,1,0-56.43,20.29l24.69,38.54c1.31,2.05,1.33,2.05,2.66,0,8-12.54,16.07-25.06,24-37.64A35.28,35.28,0,0,0,281,192.4ZM250.2,269c1.83-.15,3.75-.23,5.66-.48,4.57-.6,9-1.64,12.95-4.24s4-5.37,0-8c-3.78-2.53-8.11-3.5-12.51-4.23a2.22,2.22,0,0,0-2.43,1.15c-.78,1.26-1.65,2.46-2.39,3.74-.87,1.48-1.64,1.79-2.61.07-.69-1.22-1.55-2.34-2.25-3.56a2.61,2.61,0,0,0-3-1.41,34.18,34.18,0,0,0-10.4,3c-2.22,1.17-5,2.29-5,5.12-.07,3,2.76,4.16,5.05,5.33C238.57,268.2,244.33,268.7,250.2,269Z" style="fill:#47aef7;stroke:#47aef7;stroke-miterlimit:10;stroke-width:5px"/><path d="M250,207.39a9.35,9.35,0,1,1,9.37-9.32A9.17,9.17,0,0,1,250,207.39ZM250,193a5,5,0,1,0,5.07,5A5.31,5.31,0,0,0,250,193Z" style="fill:#47aef7"/></svg>