<svg id="레이어_1" data-name="레이어 1" xmlns="http://www.w3.org/2000/svg" viewBox="0 0 500 500"><title>2대지 1</title><path d="M305.78,351.42H293.61a4.55,4.55,0,0,0-.77-.24c-8-.8-15.12-3.91-21.69-8.33a10,10,0,0,0-5.95-1.92q-47.46.07-94.9,0a19.8,19.8,0,0,1-14.23-5.83c-3.67-3.55-5.4-8-6.07-12.92v-155a22.39,22.39,0,0,1,3.59-10,20.8,20.8,0,0,1,13.85-8.68H286.31c.45.12.9.26,1.36.34a19.46,19.46,0,0,1,10.66,6.2c3.83,4.11,5.2,9.08,5.18,14.68-.1,25.68,0,51.36,0,77,0,.67,0,1.35,0,2a1.58,1.58,0,0,0,1.58,1.9,44.21,44.21,0,0,1,5,.77q26.52,6,36.86,31.16c1.69,4.11,2.26,8.45,3.1,12.74V306.8c-.89,4.2-1.56,8.45-3.15,12.5a50.41,50.41,0,0,1-23.28,26.4A53.82,53.82,0,0,1,305.78,351.42ZM162.29,244.57q0,37,0,74c0,6.5,3.71,10.39,10.07,10.4q41.37,0,82.75,0c1.81,0,1.92-.47,1.09-1.9a51.25,51.25,0,0,1-7-27.49c.27-13.52,5.38-25,14.74-34.46a49,49,0,0,1,24.17-13.3c2.94-.69,2.94-.71,2.94-3.72,0-25.82-.11-51.65.09-77.48a9.41,9.41,0,0,0-9.86-9.93c-36.31.17-72.62.08-108.92.08a17.16,17.16,0,0,0-2,0c-3.57.46-6.22,2.2-7.45,5.68a14.94,14.94,0,0,0-.63,5Q162.31,208.06,162.29,244.57Zm137.57,94.59c20.1.19,38.17-16.68,38.18-38.25a38.11,38.11,0,1,0-38.18,38.25Z" style="fill:#47aef7"/><path d="M227,231.44q-21.09,0-42.18,0a5.57,5.57,0,0,1-5.69-3.7,6.41,6.41,0,0,1,1.71-7.22,7.49,7.49,0,0,1,5.14-1.44h80.93a16,16,0,0,1,3,.16c3.95.75,5.59,3.12,5.16,7.32-.32,3.13-2.56,4.89-6.31,4.89Z" style="fill:#47aef7"/><path d="M226.89,192.93c-13.85,0-27.7,0-41.55,0-4.52,0-6.82-2.36-6.57-6.55A5.57,5.57,0,0,1,183.4,181a18,18,0,0,1,4-.41q39.42,0,78.84,0a17.6,17.6,0,0,1,3.62.32c3.71.76,5.44,3,5.16,6.72-.25,3.33-2.44,5.3-6.19,5.31Q247.87,193,226.89,192.93Z" style="fill:#47aef7"/><path d="M211.35,270.39H186a9.19,9.19,0,0,1-4.51-.92c-2.26-1.24-3.35-4.26-2.67-7.08a5.83,5.83,0,0,1,5.45-4.35c5.27-.06,10.53,0,15.8,0h38.1c2.93,0,4.83,1.22,5.73,3.61a6.68,6.68,0,0,1-1.87,7.38,7.49,7.49,0,0,1-5,1.37Z" style="fill:#47aef7"/><path d="M205.78,308.92q-10.34,0-20.68,0c-3.66,0-6.16-2.14-6.38-5.38-.27-3.94,1.78-6.45,5.69-6.93a11.24,11.24,0,0,1,1.42-.06q20.17,0,40.34,0c3.79,0,6,1.69,6.8,5.06a5.81,5.81,0,0,1-5.7,7.29C220.11,309,212.94,308.92,205.78,308.92Z" style="fill:#47aef7"/><path d="M292.84,319.48a5.15,5.15,0,0,1-4.49-1.76c-3.63-3.72-7.35-7.35-11-11a6.46,6.46,0,0,1-.42-9.07c2.39-2.49,6.31-2.5,9.09.08,1.84,1.69,3.63,3.44,5.3,5.3,1.21,1.36,2,1.42,3.35.05,6.09-6.23,12.3-12.34,18.44-18.52a7,7,0,0,1,4.61-2.22c2.72-.2,4.77.73,6,3.15a6.54,6.54,0,0,1-1.2,7.32c-2.28,2.39-4.66,4.69-7,7-5.82,5.83-11.66,11.64-17.46,17.48A6.33,6.33,0,0,1,292.84,319.48Z" style="fill:#47aef7"/></svg>