<svg id="레이어_1" data-name="레이어 1" xmlns="http://www.w3.org/2000/svg" viewBox="0 0 500 500"><title>5대지 1</title><path d="M325.49,486.83H306.64a181.74,181.74,0,0,1-30.55-5.17c-51.55-14.93-88.13-47.07-109-96.73-5.12-12.2-2.08-11-16.4-10.73-25.32.55-49.65-3.34-72.2-15.27A135,135,0,0,1,13.27,285.4C8.61,273.2,6.59,260.57,5,247.67v-20a25.61,25.61,0,0,0,.67-2.85,137.35,137.35,0,0,1,27.92-69.4c11.21-14.86,22.18-29.88,33.55-44.64,2.84-3.71,2.88-6.65.7-10.62-4.26-7.64-7.83-15.79-12-23.56A50.58,50.58,0,0,1,51,41.17c3.47-16,14.59-24.82,30.55-27.95H91a40,40,0,0,1,26.14,18.33c3,4.81,5.33,4.69,8.71-.44a39.81,39.81,0,0,1,26.46-17.89h14.13A40.21,40.21,0,0,1,192.2,31.16c3.32,5.18,5.73,5.18,9.09-.15a38.54,38.54,0,0,1,26.42-17.79h9.41c24.6,6.6,35.69,25.18,29.87,50.19-3.1,13.18-10.81,24.33-16.52,36.28-2.14,4.47-2.06,7.64,1,11.71,12.84,16.87,25.4,33.94,37.94,51a5.91,5.91,0,0,0,6.42,2.75,153.55,153.55,0,0,1,78,8.94c43,16.57,73.56,46.28,92.16,88.33,7.64,17.39,11.19,35.84,12.7,54.7v16.5c-.65,5.23-1.24,10.48-1.91,15.71-7.64,59.82-55.7,114.87-113.7,130.83A228.92,228.92,0,0,1,325.49,486.83ZM158.94,118.44q-31.8,0-63.59-.09a10.89,10.89,0,0,0-9.85,4.94C73.89,139.1,61.86,154.6,50.31,170.45c-34.18,46.86-29.59,108.84,10.85,148.8,25.54,25.22,57.09,33.74,92,32.78,3.82-.09,4.37-1.91,3.82-5.38a138,138,0,0,1,1.28-51.55c12.87-58.58,47.24-99.29,103.1-121.38,6.73-2.66,6.88-2.87,2.49-8.75-10.37-13.82-20.82-27.55-31-41.47a11.46,11.46,0,0,0-10.35-5.23C201.32,118.54,180.13,118.44,158.94,118.44ZM456,325.7c1.64-71.46-56.84-139.5-138.72-139.55A138.37,138.37,0,0,0,178,323.6v1.84c.14,80.4,66,138.81,139,139C392.55,464.55,456.91,401.79,456,325.7Zm-297.41-230H221c3.15,0,6.38.15,8.12-3.38,4.92-10,10-20,14.74-30.11,2.13-4.56,1.91-9.55,1.41-14.51a11.88,11.88,0,0,0-8.92-11.23A12.74,12.74,0,0,0,222,40.79c-2.06,2.61-3.91,5.42-6.07,7.94a24.14,24.14,0,0,1-24.82,8.46c-8.12-1.68-13.46-7-17.63-13.67-3.45-5.54-8.15-7.64-14.74-7.74-7,0-11.18,3.42-14.89,8.71-12.73,18.12-32.32,18.08-44.95,0A48.59,48.59,0,0,0,95.37,40C91.29,35.4,86,35,80.75,36.74S73.11,42.6,72.59,48a32.68,32.68,0,0,0,3.5,18.78c4,7.41,7.88,14.94,11.3,22.65,2.16,4.87,5.29,6.49,10.48,6.43C118.13,95.55,138.33,95.68,158.55,95.68Z" style="fill:#38bb0c"/><path d="M275.79,411.81h-3.53c-8.73,0-9.42-.51-11.46-9.2-3.36-14.91-6.8-29.8-9.83-44.79-.94-4.55-2.94-6.32-7.53-6.17-7,.23-14.12,0-21.19,0-4.68,0-6.61-2.06-6.83-6.74-.73-15.52-.39-16,15-16,2.94,0,5.88,0,8.82-.09,2.41,0,4.41-.86,4.22-3.82a4,4,0,0,0-4.1-3.84l-.25,0c-5.29,0-10.6-.25-15.89,0s-7.79-1.91-7.88-7.51c-.21-14.56-.39-14.56,14.32-14.6,8.19,0,8.21-.12,6.3-8.38-1.59-6.88-3-13.81-4.57-20.66-1-4.28.18-6.61,4.78-7.55,15.81-3.17,15.54-5.3,19.09,12.09,1.32,6.53,3.13,13,4.39,19.5.69,3.57,2.45,5,6,5q11.46-.12,22.91,0a5.23,5.23,0,0,0,5.73-4.66c1.47-6.3,3.32-12.51,4.68-18.83,1-4.56,3.38-6.87,8.09-6.81H326.5a7.63,7.63,0,0,1,8.38,6.6c1.46,6.3,3.17,12.55,4.64,18.83a5.54,5.54,0,0,0,6.16,4.84h.11c7.46-.11,14.93-.15,22.37,0,4,.1,5.54-1.91,6.29-5.48,1.91-9,4-18,5.9-27,1.1-5.33,3.93-7.1,9.29-6,14.31,3,14.59,3.33,11.12,17.86-1.24,5.13-2.14,10.34-3.42,15.48-.92,3.67.34,5.18,4.05,5.06,3.13-.09,6.28,0,9.41,0a9.51,9.51,0,0,1,4.07.36c6.95,3.82,2.92,10.49,3.66,15.87.5,3.82-1.91,5.73-5.72,5.73-5.73,0-11.46.11-17.07,0-3.31,0-5.33,1.26-5.37,4.71,0,3.82,3.06,2.93,5.17,3,5.48.21,11,0,16.48.27,4.43.15,6.55,2.42,6.76,7.08.67,14.5-.09,15.47-14.45,15.47-4.32,0-8.65.3-12.95,0-5.44-.48-7.64,1.91-8.67,7.08-3,15.16-6.68,30.23-9.79,45.39-1.15,5.52-3.69,8.42-9.55,7.75a52.43,52.43,0,0,0-5.88,0c-11.89,0-11.78,0-14.64-11.8-3.4-14.11-7.16-28.12-10.47-42.25-1-4.41-3.05-6.36-7.63-6.11a112.82,112.82,0,0,1-14.71,0c-5.42-.44-7.63,1.91-8.84,7-3.45,14.9-7.23,29.69-11,44.53-2.17,8.63-2.23,8.61-11,8.65ZM276.5,329c2.06-.11,4.39-.11,6.7-.38,2.65-.32,3.43-2.48,3.55-4.68.13-2.84-2.18-2.75-4.13-2.78H271c-1.91,0-4.32-.39-4.36,2.52,0,2.44.79,4.71,3.82,5C272.33,329,274.28,328.93,276.5,329Zm80.95,0a42.36,42.36,0,0,0,6.3-.32c2.91-.33,3.82-2.33,3.82-5-.13-3.06-2.52-2.43-4.35-2.5a25.7,25.7,0,0,0-6.44,0c-3.18.68-8.87-2.6-9,3.09-.19,6.07,5.73,4.2,9.68,4.71Z" style="fill:#38bb0c"/><path d="M185.55,325.28c-.34-54.45,35.17-105.13,86.65-123.59,74.85-26.85,156.26,17.45,173.2,95.1,9.54,43.67-1.3,82.79-30.72,116.63-3,3.44-5.73,3.55-9,.63-12.12-10.79-12-9.78-2.42-22,45.08-57.16,21.31-142-46.78-168.52-63.72-24.82-134.92,15.14-146.91,82.52a109.06,109.06,0,0,0,88.3,126.46q4.31.77,8.64,1.19c29.83,3,56.29-5.41,79.53-24,4.62-3.7,7.54-3.41,11.3.84,9.85,11.17,10.06,11.46-2.18,20.51a131.43,131.43,0,0,1-183.8-27.72c-.48-.64-.94-1.28-1.41-1.93A133.34,133.34,0,0,1,185.55,325.28Z" style="fill:#38bb0c"/><path d="M328.05,13.22H434.3a6.05,6.05,0,0,1,4.78,6.07v122.2c0,2.14,0,2.14,2.19,2.14h46.29c4.35,0,6.53,1.24,7.4,5.15v.61a9.46,9.46,0,0,1-1.9,4.2q-11.46,12.47-22.82,25l-19.92,21.78-26,28.4L408,246.52q-10.69,11.68-21.36,23.41a9.09,9.09,0,0,1-4.85,3.15h-1.23a8.66,8.66,0,0,1-4.21-2.5q-14.08-15.39-28.21-30.72-15.51-17-31-33.93c-7.2-7.87-14.44-15.72-21.64-23.58s-14.95-16.38-22.3-24.5c-2.29-2.54-5.31-4.66-5.9-8.42v-.65c.9-3.91,3.07-5.1,7.43-5.17h46.43c2.05,0,2.05,0,2.05-1.91V21.41a21.49,21.49,0,0,1,0-2.27A6,6,0,0,1,328.05,13.22Zm6.09,73.6v59.82a14.51,14.51,0,0,1-.44,4.05,4.63,4.63,0,0,1-3.59,3.51,12.33,12.33,0,0,1-3.15.29H286.73c-.48,0-1.13-.23-1.36.34s.39.79.67,1.09q7.63,8.47,15.45,16.92l27.72,30.36q11.09,12.18,22.21,24.28L379.52,258c1.65,1.76,1.69,1.76,3.37,0Q397.47,242.1,412,226.11t29-31.64q11-12,22-24,6.69-7.32,13.36-14.72c.27-.27.75-.51.52-1s-.73-.25-1.11-.27-.92,0-1.37,0h-39a18.88,18.88,0,0,1-2.71-.17,4.85,4.85,0,0,1-4.26-4.14,18.14,18.14,0,0,1-.31-3.82V26.39c0-2.6,0-2.6-2.61-2.6H336.81c-2.69,0-2.69,0-2.69,2.68Z" style="fill:#38bb0c;stroke:#38bb0c;stroke-miterlimit:10;stroke-width:5px"/></svg>