<svg id="레이어_1" data-name="레이어 1" xmlns="http://www.w3.org/2000/svg" viewBox="0 0 500 500"><title>4대지 1</title><path d="M41,179.92V309.26h73a19.32,19.32,0,0,1,13.39,4.24,13.86,13.86,0,0,1,4.67,10.68,13.44,13.44,0,0,1-4.61,10.61q-4.59,4.14-13.45,4.14H27.11q-11.77,0-16.92-5.21T5,316.88v-137Q5,169,9.94,163.56a16.53,16.53,0,0,1,12.93-5.45A17.19,17.19,0,0,1,36,163.49Q41,168.89,41,179.92Z" style="fill:#38bb0c"/><path d="M176.75,227.94l26.79,75.14,28.84-78.43a46.79,46.79,0,0,1,6.68-13.39,12.17,12.17,0,0,1,9.93-3.93,15,15,0,0,1,10.74,4.24,13.24,13.24,0,0,1,4.43,9.81,19.12,19.12,0,0,1-.81,5.09,47.77,47.77,0,0,1-1.8,5.46l-2.38,5.81-31.76,78.81c-.89,2.25-2.07,5.13-3.45,8.6a44.11,44.11,0,0,1-4.72,8.9,18.56,18.56,0,0,1-6.43,5.77,19.36,19.36,0,0,1-9.27,2.07,17.85,17.85,0,0,1-11.21-3.21,21.37,21.37,0,0,1-6.21-7c-1.32-2.55-3.58-7.57-6.72-15.08l-31.53-78c-.73-1.94-1.47-3.87-2.24-5.81a53.5,53.5,0,0,1-1.94-5.94,21.4,21.4,0,0,1-.79-5.21,12.69,12.69,0,0,1,2.07-6.73,15.9,15.9,0,0,1,5.69-5.48,15.45,15.45,0,0,1,7.88-2.07c5.5,0,9.27,1.58,11.34,4.72A75.55,75.55,0,0,1,176.75,227.94Z" style="fill:#38bb0c"/><path d="M291.18,341.87a19,19,0,0,1-13-4.84,17.23,17.23,0,0,1-5.44-13.57A17.57,17.57,0,0,1,278,310.73a17.22,17.22,0,0,1,12.84-5.34,18,18,0,0,1,13,5.28,18.75,18.75,0,0,1,0,26.3A18.28,18.28,0,0,1,291.18,341.87Z" style="fill:#38bb0c"/><path d="M462,322.24V211.92q-30.78,23.6-41.46,23.59a12.18,12.18,0,0,1-9-4.14,13,13,0,0,1-3.95-9.39,10.58,10.58,0,0,1,3.89-9.08,84.27,84.27,0,0,1,13.69-7.51,102.47,102.47,0,0,0,23.46-14.48,99.48,99.48,0,0,0,15.58-17.09c4.51-6.21,7.47-10.18,8.84-11.63s4-2.19,7.75-2.19a12.42,12.42,0,0,1,10.35,5,21.72,21.72,0,0,1,3.89,13.7v138.8q0,24.36-16.55,24.35a15.24,15.24,0,0,1-11.88-5Q462,331.94,462,322.24Z" style="fill:#38bb0c"/></svg>